<?xml version="1.0" encoding="iso-8859-1"?>
<!-- Generator: Adobe Illustrator 19.2.1, SVG Export Plug-In . SVG Version: 6.00 Build 0)  -->
<svg version="1.1" xmlns="http://www.w3.org/2000/svg" xmlns:xlink="http://www.w3.org/1999/xlink" x="0px" y="0px"
	 viewBox="0 0 30 30" style="enable-background:new 0 0 30 30;" xml:space="preserve">
<g id="Layer_1_1_">
	<g id="_x33_2x32">
		<path style="fill:#99DDFF;" d="M29,21v6c0,1.1-0.9,2-2,2h-4V19h4C28.1,19,29,19.9,29,21z"/>
		<polygon style="fill:#99DDFF;" points="23,19 23,29 17,29 17,20.28 18.28,19 		"/>
		<polygon style="fill:#99DDFF;" points="17,20.28 17,29 11,29 11,26.14 11.14,26.14 		"/>
		<rect x="1" y="13" style="fill:#FFD580;" width="10" height="6"/>
		<polygon style="fill:#FFD580;" points="11,12.14 11,13 1,13 1,7 11,7 		"/>
		<path style="fill:#FFD580;" d="M11,3v4H1V3c0-1.1,0.9-2,2-2h6C10.1,1,11,1.9,11,3z"/>
		<circle style="fill:#664848;" cx="6" cy="24" r="2"/>
		<path style="fill:#664848;" d="M29.707,18.293C29.521,18.107,29.263,18,29,18h-6h-2.306l6.053-6.053
			c0.186-0.186,0.293-0.444,0.293-0.707s-0.107-0.521-0.293-0.707l-7.07-7.07C19.491,3.277,19.233,3.17,18.97,3.17
			c-0.263,0-0.521,0.107-0.707,0.293L12,9.726V7V1c0-0.263-0.107-0.521-0.293-0.707C11.521,0.107,11.263,0,11,0H1
			C0.737,0,0.479,0.107,0.293,0.293C0.107,0.479,0,0.737,0,1v6v6v6v2v3c0.001,3.314,2.686,5.999,6,6h3h2h6h6h6
			c0.263,0,0.521-0.107,0.707-0.293C29.893,29.521,30,29.263,30,29V19C30,18.737,29.893,18.479,29.707,18.293z M10,26.14V28H9H6
			c-2.209-0.004-3.996-1.791-4-4v-3v-1h8V26.14z M10,18H2v-4h8V18z M10,12H2V8h8V12z M10,6H2V2h8V6z M16,28h-4v-1.306l4-4V28z
			 M16.293,19.573L12,23.866V19v-6v-0.446l6.97-6.97l5.656,5.656l-7.053,7.053L16.293,19.573z M22,28h-4v-7.306L18.694,20H22V28z
			 M28,28h-4v-8h4V28z"/>
	</g>
</g>
<g id="Layer_1">
</g>
</svg>
